# File created by Blade
# Date/Time:  Tue Jan 27 17:08:52 2015
# Frame Rate: 120.000 fps
#------------------------------------------------------
:FULLY-SPECIFIED
:DEGREES
4049
root -9.331290 36.297931 4.859634 3.097475 -5.450064 -7.257165
Spine 7.092235 3.608155 21.135533
Head -5.003359 -3.164691 -0.356915
LeftShoulder -7.042806 -3.309247 6.133640
LeftArm -8.334238 -21.526777 -53.924560
LeftForeArm 5.314456 -0.000000 91.160936
LeftHand -13.611546 -0.000000 32.956903
LeftHandThumb1 -26.253704 0.000000 33.147579
RightShoulder -5.358341 -34.716254 -11.453749
RightArm 10.826692 -63.508513 36.839514
RightForeArm 285.059104 -0.000000 94.103797
RightHand 6.451499 0.000000 9.504656
RightHandThumb1 -24.326973 -0.000000 -32.862282
LeftUpLeg -10.976858 3.231993 14.341277
LeftLeg 41.089187 -0.000000 -0.000000
LeftFoot -20.021369 -8.448759 -12.964315
LeftToeBase -1.265981 -0.000000 0.000000
RightUpLeg -5.294935 -5.903348 7.283216
RightLeg 15.829339 -0.000000 -0.000000
RightFoot -18.621479 -9.944542 10.612163
RightToeBase 6.830378 -0.000000 -0.000000
4050
root -9.441288 36.271204 4.887961 2.824922 -4.880293 -7.480125
Spine 7.280123 3.428407 21.451131
Head -5.042169 -3.332022 -0.309793
LeftShoulder -6.933477 -3.367325 6.145341
LeftArm -8.140014 -21.513933 -54.098212
LeftForeArm 5.472366 0.000000 91.244245
LeftHand -13.574604 -0.000000 32.946455
LeftHandThumb1 -26.253704 0.000000 33.147579
RightShoulder -5.253978 -34.692459 -11.628877
RightArm 10.717058 -63.456030 36.918870
RightForeArm 285.022496 -0.000000 94.278383
RightHand 6.204542 -0.000000 9.547008
RightHandThumb1 -24.326973 -0.000000 -32.862282
LeftUpLeg -11.518944 3.495873 14.776469
LeftLeg 42.510815 -0.000000 -0.000000
LeftFoot -19.422227 -8.505377 -12.718625
LeftToeBase -2.365860 -0.000000 0.000000
RightUpLeg -5.040423 -6.068907 7.659767
RightLeg 16.025522 -0.000000 -0.000000
RightFoot -18.905453 -10.155368 10.743059
RightToeBase 6.757833 -0.000000 -0.000000
4051
root -9.547491 36.244993 4.918488 2.583625 -4.322219 -7.677625
Spine 7.412249 3.263834 21.721613
Head -5.062538 -3.557481 -0.239344
LeftShoulder -6.834125 -3.486313 6.162982
LeftArm -8.032425 -21.434042 -54.210740
LeftForeArm 5.569207 -0.000000 91.347697
LeftHand -13.565427 -0.000000 32.889894
LeftHandThumb1 -26.253704 0.000000 33.147579
RightShoulder -5.189427 -34.678948 -11.743545
RightArm 10.663542 -63.464269 36.883475
RightForeArm 285.090471 0.000000 94.469868
RightHand 6.170584 -0.000000 9.737042
RightHandThumb1 -24.326973 -0.000000 -32.862282
LeftUpLeg -12.084417 3.712378 15.154315
LeftLeg 43.870785 -0.000000 -0.000000
LeftFoot -18.833392 -8.389919 -12.451179
LeftToeBase -3.406416 -0.000000 0.000000
RightUpLeg -4.824394 -6.333122 8.003575
RightLeg 16.228777 -0.000000 -0.000000
RightFoot -19.179381 -10.306352 10.810447
RightToeBase 6.773797 -0.000000 -0.000000
4052
root -9.648397 36.220906 4.940393 2.379824 -3.786367 -7.840781
Spine 7.509335 3.120689 21.934315
Head -5.040452 -3.731751 -0.163832
LeftShoulder -6.747356 -3.509728 6.185930
LeftArm -7.835920 -21.408737 -54.366825
LeftForeArm 5.736224 -0.000000 91.458674
LeftHand -13.580353 -0.000000 32.835973
LeftHandThumb1 -26.253704 0.000000 33.147579
RightShoulder -5.097900 -34.646287 -11.852540
RightArm 10.612259 -63.484567 36.855218
RightForeArm 285.063460 -0.000000 94.628433
RightHand 6.130504 0.000000 9.909046
RightHandThumb1 -24.326973 -0.000000 -32.862282
LeftUpLeg -12.664005 3.951807 15.464137
LeftLeg 45.105678 -0.000000 -0.000000
LeftFoot -18.244005 -8.106607 -11.969055
LeftToeBase -4.568209 -0.000000 0.000000
RightUpLeg -4.682154 -6.652799 8.306835
RightLeg 16.459248 -0.000000 -0.000000
RightFoot -19.416692 -10.377915 10.866621
RightToeBase 6.668889 -0.000000 -0.000000
4053
root -9.744423 36.199627 4.966443 2.194791 -3.340435 -7.976959
Spine 7.589948 3.063031 22.110864
Head -4.985706 -3.912122 -0.110647
LeftShoulder -6.701778 -3.518834 6.179573
LeftArm -7.595208 -21.345987 -54.521710
LeftForeArm 5.835644 -0.000000 91.567564
LeftHand -13.603231 -0.000000 32.844408
LeftHandThumb1 -26.253704 0.000000 33.147579
RightShoulder -5.054424 -34.622592 -11.900136
RightArm 10.620446 -63.525735 36.727258
RightForeArm 285.090199 -0.000000 94.761207
RightHand 6.128504 0.000000 9.991827
RightHandThumb1 -24.326973 -0.000000 -32.862282
LeftUpLeg -13.183347 4.319604 15.747360
LeftLeg 46.256760 -0.000000 -0.000000
LeftFoot -17.671394 -7.914301 -11.540393
LeftToeBase -5.477399 -0.000000 0.000000
RightUpLeg -4.559098 -6.988553 8.574119
RightLeg 16.692567 -0.000000 -0.000000
RightFoot -19.630799 -10.395117 10.873123
RightToeBase 6.627046 -0.000000 -0.000000
